<svg width="20" height="20" viewBox="0 0 20 20" fill="none" xmlns="http://www.w3.org/2000/svg">
<path d="M3.7545 9.20131C2.84224 9.64398 2.23789 10.2891 1.75719 11.1827C0.641842 13.2575 1.44846 15.4962 3.71273 15.4962C5.97701 15.4962 7.22174 14.0108 7.62873 13.5878C7.79825 13.4034 7.96121 13.2115 8.11762 13.0156C8.1815 12.9353 8.30515 13.0173 8.25684 13.1083C8.20443 13.2074 8.14874 13.3058 8.0906 13.4017C7.73601 13.9821 7.85148 14.7445 8.39277 15.156C8.63844 15.3429 8.97501 15.4675 9.43524 15.4675C10.879 15.4675 12.068 14.3395 12.5675 13.7821C12.6273 13.7141 12.6855 13.646 12.7436 13.5763C12.7944 13.514 12.9827 13.2796 13.0597 13.1763C13.1211 13.0943 13.2472 13.173 13.2014 13.2648C13.1694 13.3296 13.1359 13.3944 13.1015 13.4575C12.9 13.8264 12.8894 14.2723 13.0695 14.6527C13.289 15.1167 13.6935 15.497 14.424 15.497C14.9899 15.497 15.9029 15.2134 16.753 14.4272C18.4841 12.8246 18.6324 11.4835 18.5161 11.1351C18.2204 10.249 17.1338 10.7679 16.0978 11.5319C16.0291 11.5827 15.9373 11.5097 15.9717 11.431C16.2706 10.7498 16.8922 9.09475 16.305 8.22909C15.6122 7.20931 14.1996 7.83315 12.8018 8.88981C12.7371 8.93899 12.6478 8.87505 12.6732 8.798C12.8935 8.12252 13.3758 6.32152 12.5766 5.52144C10.7504 3.69339 6.87452 8.63323 5.76982 10.1334C5.71659 10.2063 5.60195 10.1539 5.6216 10.0653C5.68957 9.75711 5.68056 9.53168 5.64207 9.41527C5.4308 8.78406 4.47759 8.85128 3.75614 9.20213L3.7545 9.20131Z" fill="black"/>
<path d="M6.70275 7.68324C7.41762 6.94247 7.566 5.92503 7.03416 5.41073C6.50233 4.89643 5.49168 5.08003 4.77681 5.82081C4.06194 6.56159 3.91356 7.57903 4.44539 8.09333C4.97722 8.60762 5.98787 8.42402 6.70275 7.68324Z" fill="black"/>
</svg>
