<svg width="72" height="72" viewBox="0 0 72 72" fill="none" xmlns="http://www.w3.org/2000/svg">
<rect width="72" height="72" rx="36" fill="#007300"/>
<path d="M30.1654 31.2778C30.1654 33.5023 28.2999 35.3056 25.9987 35.3056C23.6975 35.3056 21.832 33.5023 21.832 31.2778C21.832 29.0533 23.6975 27.25 25.9987 27.25C28.2999 27.25 30.1654 29.0533 30.1654 31.2778Z" fill="#5BFF53"/>
<path d="M16 46.5836C16 41.2449 20.4771 36.917 26 36.917C31.5228 36.917 36 41.2449 36 46.5836V46.9342C36 48.0753 35.0431 49.0003 33.8627 49.0003H18.1373C16.9569 49.0003 16 48.0753 16 46.9342V46.5836Z" fill="#5BFF53"/>
<path d="M16 46.5836C16 41.2449 20.4771 36.917 26 36.917C31.5228 36.917 36 41.2449 36 46.5836V46.9342C36 48.0753 35.0431 49.0003 33.8627 49.0003H18.1373C16.9569 49.0003 16 48.0753 16 46.9342V46.5836Z" fill="#5BFF53"/>
<path d="M50.1654 31.4167C50.1654 33.7179 48.2999 35.5833 45.9987 35.5833C43.6975 35.5833 41.832 33.7179 41.832 31.4167C41.832 29.1155 43.6975 27.25 45.9987 27.25C48.2999 27.25 50.1654 29.1155 50.1654 31.4167Z" fill="#5BFF53"/>
<path d="M36 46.6C36 41.2981 40.4772 37 46 37C51.5228 37 56 41.2981 56 46.6V46.9482C56 48.0814 55.0431 49 53.8627 49H38.1373C36.9569 49 36 48.0814 36 46.9482V46.6Z" fill="#5BFF53"/>
<path d="M36 46.6C36 41.2981 40.4772 37 46 37C51.5228 37 56 41.2981 56 46.6V46.9482C56 48.0814 55.0431 49 53.8627 49H38.1373C36.9569 49 36 48.0814 36 46.9482V46.6Z" fill="#5BFF53"/>
<path d="M41.1391 27.1852C41.1391 30.0489 38.8383 32.3704 36.0002 32.3704C33.162 32.3704 30.8613 30.0489 30.8613 27.1852C30.8613 24.3215 33.162 22 36.0002 22C38.8383 22 41.1391 24.3215 41.1391 27.1852Z" fill="#00E600"/>
<path d="M23.668 46.8887C23.668 40.0159 29.1899 34.4443 36.0014 34.4443C42.8129 34.4443 48.3347 40.0159 48.3347 46.8887V47.3401C48.3347 48.809 47.1545 49.9999 45.6987 49.9999H26.3041C24.8482 49.9999 23.668 48.809 23.668 47.3401V46.8887Z" fill="#00E600"/>
<path d="M23.668 46.8887C23.668 40.0159 29.1899 34.4443 36.0014 34.4443C42.8129 34.4443 48.3347 40.0159 48.3347 46.8887V47.3401C48.3347 48.809 47.1545 49.9999 45.6987 49.9999H26.3041C24.8482 49.9999 23.668 48.809 23.668 47.3401V46.8887Z" fill="#00E600"/>
</svg>
