<svg width="72" height="72" viewBox="0 0 72 72" fill="none" xmlns="http://www.w3.org/2000/svg">
<rect width="72" height="72" rx="36" fill="#8C4B00"/>
<path fill-rule="evenodd" clip-rule="evenodd" d="M36 54C45.9411 54 54 45.9411 54 36C54 26.0589 45.9411 18 36 18C26.0589 18 18 26.0589 18 36C18 45.9411 26.0589 54 36 54ZM28.7862 30.2191C28.5083 29.4387 27.6504 29.0312 26.87 29.3091C26.0895 29.5869 25.6821 30.4449 25.9599 31.2253L27.3081 35.0121H26C25.1716 35.0121 24.5 35.6837 24.5 36.5121C24.5 37.3406 25.1716 38.0121 26 38.0121H28.3761L30.2321 43.2253C30.4508 43.8397 31.0291 44.2229 31.646 44.2226C32.2629 44.2229 32.8412 43.8397 33.0599 43.2253L35.9189 35.1946L38.7567 43.1657C38.892 43.6015 39.2237 43.9705 39.6867 44.1353C39.8532 44.1946 40.0232 44.2227 40.1904 44.2226C40.3576 44.2227 40.5277 44.1946 40.6942 44.1353C41.1572 43.9705 41.4889 43.6015 41.6241 43.1657L43.4588 38.0121H46C46.8284 38.0121 47.5 37.3406 47.5 36.5121C47.5 35.6837 46.8284 35.0121 46 35.0121H44.5269L45.875 31.2253C46.1529 30.4449 45.7454 29.5869 44.965 29.3091C44.1846 29.0312 43.3266 29.4387 43.0488 30.2191L40.1904 38.248L37.3364 30.2312C37.3289 30.2097 37.3209 30.1883 37.3125 30.1672C37.2349 29.972 37.1203 29.8016 36.9798 29.6613C36.8395 29.5208 36.6692 29.4063 36.474 29.3287C36.3412 29.2757 36.2006 29.2415 36.0565 29.2282C35.9641 29.2196 35.872 29.2198 35.7814 29.2282C35.6373 29.2415 35.4967 29.2757 35.3639 29.3287C35.1687 29.4063 34.9984 29.5208 34.8581 29.6613C34.7176 29.8016 34.603 29.972 34.5254 30.1672C34.517 30.1883 34.509 30.2097 34.5015 30.2312L31.646 38.2521L28.7862 30.2191Z" fill="#FFAA00"/>
</svg>
