<svg width="72" height="72" viewBox="0 0 72 72" fill="none" xmlns="http://www.w3.org/2000/svg">
<rect width="72" height="72" rx="36" fill="#9200CC"/>
<path d="M22 30V46C22 49.3137 24.6863 52 28 52H44C47.3137 52 50 49.3137 50 46V30H22Z" fill="#ECA4FF"/>
<path d="M55.2231 26.5533L37.9355 20.6598C36.6803 20.2319 35.3187 20.2319 34.0635 20.6598L16.776 26.5533C15.8729 26.8612 15.8729 28.1384 16.776 28.4463L34.0635 34.3398C35.3187 34.7677 36.6803 34.7677 37.9355 34.3398L55.2231 28.4463C56.1262 28.1384 56.1262 26.8612 55.2231 26.5533Z" fill="#CD28FD"/>
<path d="M46 29H44V42H46V29Z" fill="#CD28FD"/>
<path d="M47 41C47 39.8954 46.1046 39 45 39C43.8954 39 43 39.8954 43 41V44C43 45.1046 43.8954 46 45 46C46.1046 46 47 45.1046 47 44V41Z" fill="#CD28FD"/>
</svg>
