<svg width="317" height="272" viewBox="0 0 317 272" fill="none" xmlns="http://www.w3.org/2000/svg">
<g clip-path="url(#clip0_1242_20846)">
<path d="M50.078 22.2807C49.3754 18.3667 46.1639 12.2448 37.1314 12.2448C30.4073 12.2448 25.9914 16.5603 25.9914 21.2772C25.9914 25.1912 28.5004 28.3023 33.7192 29.3059L43.6549 31.2127C56.6014 33.7217 63.5263 42.1519 63.5263 52.1878C63.5263 63.127 54.3935 74.1665 37.834 74.1665C18.9661 74.1665 10.6362 62.023 9.53223 51.8868L22.3784 48.4745C22.9806 55.4997 27.8982 61.8223 37.9343 61.8223C45.361 61.8223 49.4758 58.109 49.4758 53.0911C49.4758 48.9763 46.3646 45.7648 40.8448 44.6609L30.9091 42.6537C19.5683 40.3454 12.242 33.0192 12.242 22.2807C12.242 9.63547 23.5827 0.000976562 37.0311 0.000976562C54.2931 0.000976562 60.9169 10.4383 62.5227 18.4671L50.078 22.2807Z" fill="black"/>
<path d="M100.4 14.6559V72.6636H86.4496V14.6559H63.9688V1.50879H122.881V14.6559H100.4Z" fill="black"/>
<path d="M163.52 56.399H134.616L128.695 72.6572H114.042L141.337 1.50244H157.394L184.492 72.6572H169.438L163.516 56.399H163.52ZM139.233 43.7537H158.903L149.068 16.8574L139.233 43.7537Z" fill="black"/>
<path d="M209.991 45.2591H202.765V72.6572H188.815V1.50244H216.615C230.465 1.50244 239.297 11.0366 239.297 23.3808C239.297 33.3164 233.476 40.8433 224.142 43.553L239.397 72.6572H223.942L209.991 45.2591ZM214.006 33.3164C221.031 33.3164 225.146 29.302 225.146 23.4811C225.146 17.6603 221.031 13.5456 214.006 13.5456H202.765V33.3164H214.006Z" fill="black"/>
<path d="M279.843 14.6495V72.6572H265.893V14.6495H243.412V1.50244H302.324V14.6495H279.843Z" fill="black"/>
<path d="M27.2549 100.236H43.5133L59.4707 128.437L75.428 100.236H90.9839L65.8937 141.484V171.391H52.044V141.484L27.2549 100.236Z" fill="black"/>
<path d="M125.139 98.7344C144.508 98.7344 161.77 112.885 161.77 135.867C161.77 158.85 144.508 172.9 125.139 172.9C105.769 172.9 88.6074 158.749 88.6074 135.867C88.6074 112.985 105.866 98.7344 125.139 98.7344ZM125.139 159.452C136.178 159.452 147.419 151.824 147.419 135.767C147.419 119.709 136.178 112.082 125.139 112.082C114.099 112.082 102.959 119.709 102.959 135.767C102.959 151.824 114.199 159.452 125.139 159.452Z" fill="black"/>
<path d="M168.889 146.201V100.236H182.739V145.197C182.739 154.531 187.958 159.448 196.188 159.448C204.417 159.448 209.736 154.531 209.736 145.197V100.236H223.586V146.201C223.586 163.663 211.442 172.997 196.188 172.997C180.933 172.997 168.889 163.663 168.889 146.201Z" fill="black"/>
<path d="M253.564 143.993H246.338V171.391H232.388V100.236H260.188C274.037 100.236 282.869 109.77 282.869 122.115C282.869 132.05 277.048 139.577 267.715 142.287L282.969 171.391H267.514L253.564 143.993ZM257.578 132.05C264.604 132.05 268.718 128.036 268.718 122.215C268.718 116.394 264.604 112.279 257.578 112.279H246.338V132.05H257.578Z" fill="black"/>
<path d="M25.0002 198.313C38.85 198.313 46.6781 206.443 46.6781 217.482C46.6781 224.808 42.2623 230.73 36.341 232.737C43.2659 234.443 48.8861 240.765 48.8861 249.597C48.8861 261.138 40.255 269.468 26.9071 269.468H-0.591797V198.313H25.0002ZM22.8926 227.719C29.2154 227.719 33.0291 224.206 33.0291 218.787C33.0291 213.367 29.5164 209.955 22.7923 209.955H13.0573V227.719H22.8926ZM24.2977 257.927C31.0219 257.927 35.0363 254.414 35.0363 248.694C35.0363 242.973 31.4233 239.16 24.4984 239.16H13.0573V257.927H24.2977Z" fill="black"/>
<path d="M79.017 242.07H71.791V269.468H57.8408V198.313H85.6408C99.4905 198.313 108.322 207.848 108.322 220.192C108.322 230.127 102.501 237.654 93.1678 240.364L108.423 269.468H92.9671L79.017 242.07ZM83.0314 230.127C90.0566 230.127 94.1714 226.113 94.1714 220.292C94.1714 214.471 90.0566 210.357 83.0314 210.357H71.791V230.127H83.0314Z" fill="black"/>
<path d="M160.941 253.21H132.037L126.115 269.468H111.463L138.761 198.313H154.819L181.916 269.468H166.862L160.941 253.21ZM136.653 240.565H156.324L146.489 213.668L136.653 240.565Z" fill="black"/>
<path d="M232.406 269.468L200.09 218.987V269.468H186.24V198.313H203.502L233.109 245.382V198.313H246.958V269.468H232.406Z" fill="black"/>
<path d="M255.628 269.468V198.313H281.12C301.392 198.313 316.246 211.461 316.246 233.941C316.246 256.422 301.292 269.468 281.019 269.468H255.628ZM280.517 256.622C292.159 256.622 301.894 249.396 301.894 233.941C301.894 218.486 292.26 211.159 280.618 211.159H269.478V256.622H280.517Z" fill="black"/>
</g>
<defs>
<clipPath id="clip0_1242_20846">
<rect width="317" height="272" fill="white"/>
</clipPath>
</defs>
</svg>
