<svg width="905" height="270" viewBox="0 0 905 270" fill="none" xmlns="http://www.w3.org/2000/svg">
<path d="M64.0684 35.2059C62.9583 29.0211 57.8836 19.3474 43.6109 19.3474C32.9857 19.3474 26.008 26.1665 26.008 33.62C26.008 39.8049 29.9726 44.721 38.219 46.3069L53.9189 49.32C74.3764 53.2846 85.3188 66.6058 85.3188 82.4643C85.3188 99.7501 70.8876 117.194 44.721 117.194C14.907 117.194 1.74444 98.0056 0 81.9885L20.2989 76.5966C21.2504 87.6976 29.0211 97.6885 44.8796 97.6885C56.6149 97.6885 63.1169 91.8208 63.1169 83.8915C63.1169 77.3895 58.2007 72.3148 49.4786 70.5704L33.7786 67.3987C15.8585 63.7512 4.2818 52.1745 4.2818 35.2059C4.2818 15.2242 22.2019 0 43.4523 0C70.729 0 81.1956 16.4929 83.733 29.1797L64.0684 35.2059Z" fill="black"/>
<path d="M141.582 23.1536V114.816H119.539V23.1536H84.0156V2.37891H177.105V23.1536H141.582Z" fill="black"/>
<path d="M241.331 89.125H195.658L186.302 114.816H163.148L206.278 2.37891H231.652L274.47 114.816H250.682L241.326 89.125H241.331ZM202.953 69.1433H234.036L218.495 26.6424L202.953 69.1433Z" fill="black"/>
<path d="M314.751 71.522H303.332V114.816H281.289V2.37891H325.217C347.102 2.37891 361.057 17.4445 361.057 36.9505C361.057 52.6504 351.859 64.5443 337.111 68.8261L361.216 114.816H336.794L314.751 71.522ZM321.094 52.6504C332.195 52.6504 338.697 46.307 338.697 37.1091C338.697 27.9111 332.195 21.4091 321.094 21.4091H303.332V52.6504H321.094Z" fill="black"/>
<path d="M425.125 23.1536V114.816H403.082V23.1536H367.559V2.37891H460.648V23.1536H425.125Z" fill="black"/>
<path d="M500.93 2.37891H526.62L551.836 46.9413L577.051 2.37891H601.631L561.985 67.5574V114.816H540.1V67.5574L500.93 2.37891Z" fill="black"/>
<path d="M655.596 0C686.203 0 713.48 22.3605 713.48 58.6765C713.48 94.9925 686.203 117.194 655.596 117.194C624.989 117.194 597.871 94.8339 597.871 58.6765C597.871 22.5191 625.142 0 655.596 0ZM655.596 95.944C673.04 95.944 690.802 83.8915 690.802 58.5179C690.802 33.1443 673.04 21.0918 655.596 21.0918C638.152 21.0918 620.549 33.1443 620.549 58.5179C620.549 83.8915 638.31 95.944 655.596 95.944Z" fill="black"/>
<path d="M724.73 75.0109V2.37891H746.615V73.4251C746.615 88.1735 754.862 95.9442 767.866 95.9442C780.87 95.9442 789.275 88.1735 789.275 73.4251V2.37891H811.159V75.0109C811.159 102.605 791.971 117.353 767.866 117.353C743.761 117.353 724.73 102.605 724.73 75.0109Z" fill="black"/>
<path d="M858.532 71.522H847.114V114.816H825.07V2.37891H868.998C890.883 2.37891 904.839 17.4445 904.839 36.9505C904.839 52.6504 895.641 64.5443 880.892 68.8261L904.997 114.816H880.575L858.532 71.522ZM864.875 52.6504C875.976 52.6504 882.478 46.307 882.478 37.1091C882.478 27.9111 875.976 21.4091 864.875 21.4091H847.114V52.6504H864.875Z" fill="black"/>
<path d="M241.439 153.353C263.324 153.353 275.694 166.198 275.694 183.643C275.694 195.22 268.716 204.576 259.359 207.748C270.302 210.444 279.182 220.435 279.182 234.39C279.182 252.627 265.544 265.79 244.452 265.79H201V153.353H241.439ZM238.109 199.818C248.1 199.818 254.126 194.268 254.126 185.704C254.126 177.141 248.576 171.749 237.95 171.749H222.568V199.818H238.109ZM240.329 247.553C250.954 247.553 257.298 242.002 257.298 232.963C257.298 223.923 251.589 217.897 240.646 217.897H222.568V247.553H240.329Z" fill="black"/>
<path d="M326.805 222.496H315.387V265.79H293.344V153.353H337.272C359.157 153.353 373.112 168.419 373.112 187.925C373.112 203.625 363.914 215.518 349.166 219.8L373.271 265.79H348.849L326.805 222.496ZM333.149 203.625C344.25 203.625 350.752 197.281 350.752 188.083C350.752 178.885 344.25 172.383 333.149 172.383H315.387V203.625H333.149Z" fill="black"/>
<path d="M456.257 240.099H410.584L401.228 265.79H378.074L421.209 153.353H446.583L489.401 265.79H465.613L456.257 240.099ZM417.879 220.117H448.962L433.42 177.617L417.879 220.117Z" fill="black"/>
<path d="M569.168 265.79L518.104 186.022V265.79H496.219V153.353H523.495L570.278 227.729V153.353H592.163V265.79H569.168Z" fill="black"/>
<path d="M605.863 265.79V153.353H646.144C678.178 153.353 701.649 174.128 701.649 209.651C701.649 245.174 678.02 265.79 645.985 265.79H605.863ZM645.192 245.491C663.588 245.491 678.971 234.073 678.971 209.651C678.971 185.229 663.747 173.652 645.351 173.652H627.748V245.491H645.192Z" fill="black"/>
</svg>
