<svg width="403" height="47" viewBox="0 0 403 47" fill="none" xmlns="http://www.w3.org/2000/svg">
<path d="M129.194 13.1201C128.331 11.8922 127.037 10.963 125.311 10.2993C123.585 9.63554 121.826 9.30367 120.001 9.30367C117.645 9.30367 115.421 9.86784 113.364 11.0294C111.306 12.1577 109.647 13.8502 108.419 16.0073C107.191 18.1976 106.561 20.753 106.561 23.7066C106.561 26.4942 107.191 28.9832 108.419 31.2067C109.647 33.4302 111.273 35.1559 113.264 36.417C115.289 37.678 117.446 38.2754 119.769 38.2754C121.561 38.2754 123.353 37.8772 125.112 37.0475C126.871 36.2178 128.231 35.1559 129.194 33.7952L129.194 37.4789L136.461 37.4789L136.461 10.0006L129.194 10.0006L129.194 13.1201ZM128.43 27.6226C127.8 28.8173 126.904 29.7133 125.742 30.377C124.614 31.0408 123.286 31.3726 121.826 31.3726C120.366 31.3726 119.171 31.0408 118.01 30.4102C116.848 29.7797 115.919 28.8836 115.222 27.7221C114.525 26.5606 114.193 25.2995 114.193 23.9389C114.193 22.4455 114.525 21.0848 115.189 19.8901C115.853 18.6954 116.782 17.733 117.943 17.0693C119.105 16.4056 120.466 16.0405 121.959 16.0405C123.452 16.0405 124.647 16.3724 125.775 17.0693C126.904 17.7662 127.8 18.6954 128.43 19.8901C129.061 21.0848 129.393 22.3459 129.393 23.6734C129.393 25.1336 129.061 26.461 128.43 27.6226Z" fill="white"/>
<path d="M153.155 20.911C151.529 20.5128 150.335 20.0482 149.604 19.5172C148.874 18.953 148.476 18.2893 148.476 17.5592C148.476 16.8623 148.742 16.2981 149.273 15.8667C149.804 15.4353 150.534 15.203 151.43 15.203C152.326 15.203 153.155 15.5016 153.952 16.1322C154.715 16.7627 155.113 17.4265 155.08 18.0902L161.95 18.0902C161.983 16.4972 161.518 15.037 160.589 13.7096C159.66 12.3821 158.366 11.3202 156.74 10.5569C155.113 9.79359 153.321 9.42854 151.33 9.42854C149.339 9.42854 147.514 9.79359 145.921 10.4905C144.328 11.1874 143.1 12.183 142.204 13.4441C141.308 14.7052 140.876 16.1322 140.876 17.7251C140.876 19.2185 141.175 20.4796 141.772 21.5416C142.37 22.6035 143.332 23.4996 144.593 24.2629C145.888 25.0261 147.547 25.6899 149.638 26.254C151.164 26.5859 152.293 27.0837 153.056 27.6479C153.786 28.2452 154.184 28.909 154.184 29.6722C154.184 30.4687 153.919 31.0993 153.421 31.5307C152.89 31.9953 152.16 32.1944 151.197 32.1944C149.97 32.1944 148.974 31.8294 148.144 31.0661C147.315 30.336 146.883 29.3736 146.85 28.2452L139.881 28.2452C139.881 30.17 140.379 31.8625 141.374 33.3559C142.37 34.8493 143.764 36.044 145.523 36.8737C147.281 37.7033 149.239 38.1348 151.43 38.1348C153.62 38.1348 155.412 37.7697 157.071 37.0396C158.731 36.3095 159.992 35.2807 160.888 33.9201C161.784 32.5595 162.248 31.0329 162.248 29.3072C162.248 27.1501 161.518 25.4244 160.058 24.0637C158.598 22.7031 156.308 21.6411 153.189 20.8778L153.155 20.911Z" fill="white"/>
<path d="M95.543 0.965679L95.543 37.4707L102.91 37.4707L102.91 0.965679L95.543 0.965679Z" fill="white"/>
<path d="M176.021 0.998863L168.753 0.998863L168.753 9.99237L164.538 9.99237L164.538 16.6297L168.753 16.6296L168.753 37.4707L176.021 37.4707L176.021 16.6296L180.866 16.6296L180.866 9.99237L176.021 9.99237L176.021 0.998863Z" fill="white"/>
<path d="M78.6848 0.998863L65.543 0.998863L65.543 37.4707L72.9103 37.4707L72.9103 23.3333L78.6848 23.3333C81.5056 23.3333 83.895 22.8687 85.9194 21.9395C87.9438 21.0103 89.4704 19.716 90.4991 18.0567C91.5279 16.3973 92.0589 14.4725 92.0589 12.2822C92.0589 9.09634 91.0633 6.40824 89.0389 4.25113C87.0146 2.09401 83.5964 0.998862 78.6848 0.998863ZM83.3309 15.4018C82.4017 16.165 81.1074 16.5633 79.4481 16.5633L72.9103 16.5633L72.9103 7.86844L78.9835 7.86844C80.7091 7.86844 82.103 8.23349 83.1318 8.99678C84.1605 9.72688 84.6915 10.8552 84.6915 12.2822C84.6915 13.6097 84.2269 14.6385 83.2977 15.4018L83.3309 15.4018Z" fill="white"/>
<path d="M55.0572 11.2285C52.9001 9.93421 50.4443 9.30367 47.6899 9.30367C44.9354 9.30367 42.4132 9.93422 40.1897 11.1621C37.9663 12.4232 36.2074 14.1489 34.9463 16.3392C33.652 18.5295 33.0215 21.0185 33.0215 23.8061C33.0215 26.5938 33.652 28.95 34.9131 31.1735C36.1742 33.3638 37.8999 35.1227 40.1234 36.3838C42.3137 37.6448 44.7695 38.2754 47.4244 38.2754C50.0793 38.2754 52.6346 37.6448 54.8581 36.417C57.0816 35.1559 58.8073 33.4302 60.0684 31.2399C61.3295 29.0496 61.96 26.5606 61.96 23.8393C61.96 21.118 61.3295 18.6954 60.1016 16.4719C58.8737 14.2816 57.1812 12.5228 54.9909 11.2617L55.0572 11.2285ZM52.7674 29.1823C51.4399 30.5098 49.6479 31.1735 47.4244 31.1735C45.2009 31.1735 43.5416 30.4766 42.2141 29.0828C40.8867 27.6889 40.2229 25.9301 40.2229 23.7729C40.2229 22.3127 40.5548 21.0185 41.1853 19.8901C41.8159 18.7618 42.6787 17.8989 43.7739 17.2684C44.869 16.6379 46.0637 16.3392 47.3912 16.3392C49.5815 16.3392 51.3404 17.0361 52.701 18.4299C54.0617 19.8238 54.7254 21.6158 54.7254 23.7729C54.7254 25.9301 54.0617 27.8217 52.7342 29.1491L52.7674 29.1823Z" fill="white"/>
<path d="M22.4008 24.1298L6.86958 0.998863L-1.59423e-06 0.998863L0 37.4707L7.33419 37.4707L7.33419 14.3398L22.8654 37.4707L29.735 37.4707L29.735 0.998862L22.4008 0.998862L22.4008 24.1298Z" fill="white"/>
<path d="M329.839 13.1201C329.01 11.8922 327.715 10.963 325.956 10.2993C324.197 9.63554 322.439 9.30368 320.613 9.30368C318.257 9.30368 316.067 9.86785 314.009 11.0294C311.952 12.1577 310.326 13.8502 309.064 16.0073C307.803 18.1976 307.206 20.753 307.206 23.7066C307.206 26.4942 307.837 28.9832 309.064 31.2067C310.292 33.4302 311.919 35.1559 313.91 36.417C315.934 37.678 318.091 38.2754 320.414 38.2754C322.206 38.2754 323.998 37.8772 325.757 37.0475C327.516 36.2178 328.877 35.1559 329.839 33.7952L329.839 37.4789L337.107 37.4789L337.107 1.00708L329.839 1.00708L329.839 13.1201ZM329.076 27.6226C328.445 28.8173 327.549 29.7133 326.388 30.377C325.226 31.0408 323.932 31.3726 322.505 31.3726C321.144 31.3726 319.883 31.0408 318.722 30.4102C317.527 29.7797 316.631 28.8836 315.934 27.7221C315.237 26.5606 314.905 25.2995 314.905 23.9389C314.905 22.4455 315.237 21.0848 315.868 19.8901C316.498 18.6622 317.427 17.733 318.589 17.0693C319.751 16.4056 321.111 16.0405 322.605 16.0405C324.098 16.0405 325.293 16.3724 326.421 17.0693C327.549 17.7662 328.445 18.6954 329.076 19.8901C329.706 21.0848 330.038 22.3459 330.038 23.6734C330.038 25.1336 329.706 26.461 329.076 27.6226Z" fill="white"/>
<path d="M362.86 13.1201C361.997 11.8922 360.703 10.963 358.977 10.2993C357.251 9.63554 355.492 9.30367 353.667 9.30367C351.311 9.30367 349.087 9.86784 347.03 11.0294C344.972 12.1577 343.313 13.8502 342.085 16.0073C340.857 18.1976 340.227 20.753 340.227 23.7066C340.227 26.4942 340.857 28.9832 342.085 31.2067C343.313 33.4302 344.939 35.1559 346.93 36.417C348.955 37.678 351.112 38.2754 353.435 38.2754C355.227 38.2754 357.019 37.8772 358.778 37.0475C360.537 36.2178 361.897 35.1559 362.86 33.7952L362.86 37.4789L370.128 37.4789L370.128 10.0006L362.86 10.0006L362.86 13.1201ZM362.096 27.6226C361.466 28.8173 360.57 29.7133 359.408 30.377C358.28 31.0408 356.953 31.3726 355.492 31.3726C354.032 31.3726 352.837 31.0408 351.676 30.4102C350.514 29.7797 349.585 28.8836 348.888 27.7221C348.191 26.5938 347.859 25.2995 347.859 23.9389C347.859 22.4455 348.191 21.0848 348.855 19.8901C349.519 18.6954 350.448 17.733 351.609 17.0693C352.771 16.4056 354.132 16.0405 355.625 16.0405C357.118 16.0405 358.313 16.3724 359.441 17.0693C360.57 17.7662 361.466 18.6954 362.096 19.8901C362.727 21.0848 363.059 22.3459 363.059 23.6734C363.059 25.1336 362.727 26.461 362.096 27.6226Z" fill="white"/>
<path d="M393.988 9.99499L387.716 25.2607L380.548 9.99499L372.384 9.99499L383.866 34.0219L378.258 46.5332L386.09 46.5332L402.019 9.99499L393.988 9.99499Z" fill="white"/>
<path d="M298.611 10.4902C296.918 9.59414 295.027 9.12953 292.936 9.12953C291.376 9.12953 289.85 9.52776 288.323 10.2579C286.83 11.0212 285.735 11.9504 285.137 13.0787L285.137 9.95919L278.434 9.95919L278.434 37.4707L285.701 37.4707L285.701 24.4616C285.701 21.9063 286.066 19.8487 286.83 18.3222C287.593 16.7956 289.086 16.0323 291.343 16.0323C293.467 16.0323 294.927 16.7956 295.724 18.289C296.52 19.7824 296.918 21.8399 296.918 24.4616L296.918 37.4707L304.186 37.4707L304.186 22.0058C304.186 19.0854 303.688 16.6628 302.66 14.738C301.631 12.8132 300.27 11.4194 298.578 10.4902L298.611 10.4902Z" fill="white"/>
<path d="M201.076 11.8235C199.052 13.0514 197.558 14.6775 196.53 16.7683C195.501 18.859 195.003 21.1821 195.003 23.7374C195.003 26.2928 195.567 28.5826 196.729 30.6734C197.89 32.7641 199.516 34.4234 201.607 35.6513C203.698 36.8792 206.087 37.5098 208.742 37.5098L215.711 37.5098L215.711 30.8393L209.107 30.8393C206.983 30.8393 205.324 30.2088 204.096 28.9145C202.868 27.6202 202.238 25.8945 202.238 23.7042C202.238 21.5139 202.868 19.8546 204.096 18.5603C205.324 17.2661 206.983 16.6355 209.107 16.6355L215.711 16.6355L215.711 9.96506L208.344 9.96506C205.49 9.96506 203.067 10.5624 201.076 11.7903L201.076 11.8235Z" fill="white"/>
<path d="M267.251 24.6592C267.251 27.1482 266.786 28.9403 265.89 30.0022C264.994 31.0642 263.6 31.5952 261.742 31.5952C259.883 31.5952 258.556 31.0642 257.626 29.969C256.697 28.9071 256.233 27.115 256.233 24.6592L256.233 9.99084L248.965 9.99084L248.965 24.6924C248.965 29.3385 250.06 32.7567 252.25 34.9802C254.441 37.2037 257.593 38.2988 261.775 38.2988C265.956 38.2988 269.109 37.2037 271.299 35.0134C273.49 32.8231 274.585 29.3717 274.585 24.6924L274.585 9.99084L267.317 9.99084L267.317 24.6592L267.251 24.6592Z" fill="white"/>
<path d="M234.726 15.6972C234.726 15.6972 234.56 15.6308 234.461 15.6308C234.361 15.6308 234.262 15.5976 234.162 15.5644C231.839 14.9671 230.213 14.3033 229.25 13.5732C228.288 12.8431 227.823 11.8807 227.823 10.6528C227.823 9.42493 228.255 8.46253 229.151 7.73243C230.047 7.00233 231.175 6.60409 232.602 6.60409C234.129 6.60409 235.39 7.0687 236.419 7.99792C237.447 8.92714 237.945 10.1218 237.945 11.5157L245.379 11.5157C245.412 9.35856 244.881 7.40057 243.753 5.64169C242.625 3.88281 241.098 2.48898 239.074 1.49339C237.049 0.497798 234.826 -7.13707e-07 232.37 -6.0636e-07C229.914 -4.99014e-07 227.724 0.464611 225.766 1.39383C223.808 2.32305 222.314 3.61732 221.186 5.27664C220.091 6.93596 219.527 8.82758 219.527 10.8851C219.527 13.706 220.423 15.9627 222.182 17.7215C223.941 19.4804 226.728 20.8079 230.545 21.7371C230.777 21.8035 231.009 21.8698 231.242 21.903C231.474 21.9694 231.706 22.0026 231.939 22.0689C233.764 22.6663 235.158 23.3964 236.054 24.2924C236.95 25.1885 237.414 26.2504 237.414 27.4783C237.414 28.7726 236.916 29.8014 235.921 30.631C234.925 31.4607 233.631 31.8589 232.005 31.8589C230.312 31.8589 228.919 31.328 227.823 30.2328C226.728 29.1708 226.131 27.7106 226.031 25.9186L218.498 25.9186C218.498 28.4739 219.095 30.7306 220.257 32.6554C221.452 34.5802 223.078 36.0736 225.169 37.1356C227.259 38.1975 229.682 38.7285 232.436 38.7285C234.992 38.7285 237.282 38.2307 239.339 37.2351C241.363 36.2395 242.956 34.8789 244.118 33.1532C245.279 31.4275 245.844 29.4695 245.844 27.2792C245.844 24.2924 244.948 21.8698 243.122 19.945C241.297 18.0534 238.509 16.5932 234.726 15.6308L234.726 15.6972Z" fill="white"/>
<path d="M184.118 1.0033L184.118 7.54102L191.718 7.54102L191.718 1.0033L184.118 1.0033Z" fill="white"/>
<path d="M184.283 9.95918L184.283 37.4707L191.551 37.4707L191.551 9.95918L184.283 9.95918Z" fill="white"/>
</svg>
