<svg width="44" height="44" viewBox="0 0 44 44" fill="none" xmlns="http://www.w3.org/2000/svg">
<path d="M31.5657 22.5657C31.8781 22.2533 31.8781 21.7467 31.5657 21.4343L26.4745 16.3431C26.1621 16.0307 25.6556 16.0307 25.3431 16.3431C25.0307 16.6556 25.0307 17.1621 25.3431 17.4745L29.8686 22L25.3431 26.5255C25.0307 26.8379 25.0307 27.3444 25.3431 27.6569C25.6556 27.9693 26.1621 27.9693 26.4745 27.6569L31.5657 22.5657ZM12.5808 21.2C12.139 21.2 11.7808 21.5582 11.7808 22C11.7808 22.4418 12.139 22.8 12.5808 22.8L12.5808 21.2ZM31 21.2L12.5808 21.2L12.5808 22.8L31 22.8L31 21.2Z" fill="white"/>
</svg>
