<svg width="44" height="44" viewBox="0 0 44 44" fill="none" xmlns="http://www.w3.org/2000/svg">
<path d="M12.4343 22.5657C12.1219 22.2533 12.1219 21.7467 12.4343 21.4343L17.5255 16.3431C17.8379 16.0307 18.3444 16.0307 18.6569 16.3431C18.9693 16.6556 18.9693 17.1621 18.6569 17.4745L14.1314 22L18.6569 26.5255C18.9693 26.8379 18.9693 27.3444 18.6569 27.6569C18.3444 27.9693 17.8379 27.9693 17.5255 27.6569L12.4343 22.5657ZM31.4192 21.2C31.861 21.2 32.2192 21.5582 32.2192 22C32.2192 22.4418 31.861 22.8 31.4192 22.8L31.4192 21.2ZM13 21.2L31.4192 21.2L31.4192 22.8L13 22.8L13 21.2Z" fill="white"/>
</svg>
